<svg xmlns="http://www.w3.org/2000/svg" viewBox="0 0 246 150">
  <path
    d="m -58.356585,168.66862 c 12.264097,0 22.137358,9.87327 22.137358,22.13736 v 146.06873 c 0,12.2641 -9.873261,22.13736 -22.137358,22.13736 -12.264096,0 -22.137357,-9.87326 -22.137357,-22.13736 V 190.80598 c 0,-12.26409 9.873261,-22.13736 22.137357,-22.13736 z"
    transform="rotate(-43.437415,-229.79579,5.416332)"
  />
  <path
    d="m -58.356585,168.66862 c 12.264097,0 22.137358,9.87327 22.137358,22.13736 v 146.06873 c 0,12.2641 -9.873261,22.13736 -22.137358,22.13736 -12.264096,0 -22.137357,-9.87326 -22.137357,-22.13736 V 190.80598 c 0,-12.26409 9.873261,-22.13736 22.137357,-22.13736 z"
    transform="matrix(-0.72612584,-0.68756183,-0.68756183,0.72612584,312.22904,-156.51509)"
  />
</svg>
